<svg width="163" height="47" viewBox="0 0 163 47" fill="none" xmlns="http://www.w3.org/2000/svg">
<path d="M20.7178 18.0122C20.7185 18.733 20.7983 19.4516 20.9559 20.155C21.1721 20.7578 21.4376 21.3418 21.7495 21.901C21.8387 22.0739 21.8927 22.2627 21.9083 22.4566C21.8935 22.6056 21.8424 22.7487 21.7594 22.8732C21.6763 22.9978 21.5639 23.1 21.4321 23.1709L19.9241 24.2026C19.7514 24.3613 19.5237 24.4467 19.2892 24.4407C19.155 24.438 19.0227 24.4086 18.9 24.3541C18.7774 24.2995 18.6668 24.2211 18.5749 24.1233C18.2221 23.7757 17.9273 23.3738 17.7019 22.9328C17.4638 22.536 17.2257 22.0598 16.9082 21.5042C16.0423 22.5784 14.94 23.438 13.6873 24.0162C12.4346 24.5944 11.0652 24.8755 9.68602 24.8375C7.88126 24.9169 6.11646 24.2907 4.76538 23.0915C3.54019 21.7364 2.89543 19.9548 2.96963 18.1295C3.04383 16.3042 3.83107 14.5808 5.16221 13.3296C6.85835 11.9525 9.01454 11.2716 11.194 11.4249C12.067 11.4249 12.94 11.5043 13.813 11.5836C14.7514 11.6998 15.6799 11.8855 16.5908 12.1392V10.3931C16.5908 8.56775 16.194 7.21855 15.4797 6.50427C14.7654 5.78998 13.4162 5.39316 11.5114 5.39316C10.6281 5.38114 9.74722 5.48792 8.89237 5.71062C8.01935 5.94871 7.14634 6.18681 6.27332 6.50427C5.99614 6.6448 5.70301 6.75139 5.4003 6.82172C5.27845 6.88588 5.14064 6.91344 5.00348 6.90109C4.68602 6.90109 4.52729 6.663 4.52729 6.10744V4.91697C4.50228 4.61706 4.55705 4.31587 4.68602 4.04396C4.85437 3.79963 5.11002 3.62919 5.4003 3.56777C6.38099 3.06818 7.42102 2.69484 8.49554 2.45666C9.74105 2.14227 11.0205 1.98234 12.3051 1.98047C15.2416 1.98047 17.3844 2.61539 18.7336 3.96459C20.0829 5.31379 20.7971 7.29791 20.7971 9.99632L20.7178 18.0122ZM10.7971 21.7423C11.6579 21.7269 12.5124 21.5934 13.3368 21.3455C14.2233 21.0145 15.014 20.4692 15.6384 19.7582C16.0112 19.2905 16.2816 18.7497 16.4321 18.1709C16.5896 17.4675 16.6694 16.7489 16.6702 16.028V14.9963C15.9368 14.8257 15.195 14.6932 14.4479 14.5995C13.684 14.5071 12.9158 14.4541 12.1463 14.4408C10.8588 14.3591 9.57909 14.6929 8.49554 15.3931C8.12377 15.6575 7.80806 15.9929 7.56668 16.3799C7.32529 16.767 7.16301 17.1981 7.08921 17.6483C7.01542 18.0984 7.03156 18.5588 7.13673 19.0026C7.24189 19.4465 7.43398 19.8652 7.70189 20.2344C8.06277 20.7116 8.53118 21.0968 9.06902 21.3588C9.60686 21.6209 10.1989 21.7523 10.7971 21.7423ZM30.4003 24.3614C30.0686 24.3579 29.7423 24.2764 29.4479 24.1233C29.1973 23.8608 29.0314 23.5289 28.9717 23.1709L23.2575 4.28205L23.0194 3.32967C22.94 3.01221 23.1781 2.77412 23.4956 2.69475H26.0352C26.3714 2.65011 26.712 2.73525 26.9876 2.93285C27.2231 3.20575 27.3868 3.5331 27.4638 3.88523L31.5908 20.0757L35.4003 3.88523C35.4599 3.52719 35.6259 3.19536 35.8765 2.93285C36.1709 2.77975 36.4971 2.69818 36.8289 2.69475H38.813C39.1459 2.68879 39.4745 2.77093 39.7654 2.93285C40.0161 3.19536 40.182 3.52719 40.2416 3.88523L44.1305 20.2344L48.3368 3.88523C48.4139 3.5331 48.5775 3.20575 48.813 2.93285C49.1074 2.77975 49.4336 2.69818 49.7654 2.69475H52.067C52.2125 2.68389 52.3571 2.72615 52.4738 2.81371C52.5906 2.90127 52.6716 3.02819 52.7019 3.17094V3.32967C52.7143 3.46683 52.6867 3.60464 52.6226 3.7265C52.6075 3.94584 52.5537 4.16078 52.4638 4.36141L46.5908 23.2502C46.5312 23.6083 46.3653 23.9401 46.1146 24.2026C45.8237 24.3645 45.4951 24.4467 45.1622 24.4407H43.0987C42.7658 24.4467 42.4373 24.3645 42.1464 24.2026C41.9109 23.9297 41.7472 23.6024 41.6702 23.2502L37.8606 7.45665L34.0511 23.1709C33.9915 23.5289 33.8256 23.8608 33.5749 24.1233C33.2956 24.3126 32.9582 24.397 32.6225 24.3614H30.4003ZM61.8289 24.9963C60.5755 24.9862 59.3262 24.8533 58.0987 24.5995C57.1359 24.402 56.2024 24.0819 55.321 23.6471C54.988 23.4981 54.7104 23.2483 54.5273 22.9328C54.4369 22.7046 54.3833 22.4635 54.3686 22.2185V20.9487C54.3686 20.4725 54.5273 20.155 54.9241 20.155C55.087 20.1425 55.2504 20.1697 55.4003 20.2344L56.0353 20.4725C56.9058 20.8463 57.8091 21.1386 58.7337 21.3455C59.7018 21.5338 60.6841 21.64 61.6702 21.663C62.9132 21.7613 64.1572 21.4849 65.2416 20.8693C65.634 20.628 65.9573 20.2892 66.1798 19.8859C66.4024 19.4825 66.5166 19.0284 66.5114 18.5677C66.5071 17.93 66.2829 17.3133 65.8765 16.8217C65.1648 16.2151 64.323 15.7805 63.4162 15.5519L59.8448 14.4408C58.322 14.0499 56.9613 13.189 55.9559 11.9804C55.1769 10.9534 54.7584 9.69806 54.7654 8.40902C54.7684 7.47289 54.9856 6.54986 55.4003 5.71062C55.8294 4.9289 56.4255 4.25144 57.1464 3.7265C57.9154 3.16329 58.774 2.73398 59.686 2.45666C60.6919 2.16894 61.7354 2.03515 62.7813 2.05983C63.338 2.04667 63.895 2.07319 64.448 2.1392C65.0035 2.21856 65.5591 2.29793 66.0353 2.37729C66.521 2.47252 66.9986 2.60519 67.4638 2.77412C67.8402 2.85016 68.1935 3.01324 68.4956 3.25031C68.8009 3.37138 69.0538 3.59618 69.2099 3.88523C69.371 4.11802 69.4543 4.39583 69.448 4.67888V5.86935C69.448 6.34554 69.2892 6.663 68.8924 6.663C68.5551 6.63012 68.2296 6.52161 67.94 6.34554C66.4584 5.71862 64.8663 5.39479 63.2575 5.39316C62.1268 5.31534 60.9976 5.56323 60.0035 6.10744C59.6302 6.31807 59.3263 6.6329 59.1289 7.01345C58.9316 7.394 58.8494 7.82379 58.8924 8.25029C58.8907 8.57401 58.953 8.89487 59.0755 9.19449C59.1981 9.4941 59.3786 9.76659 59.6067 9.99632C60.4009 10.6314 61.3205 11.0912 62.3051 11.3455L65.7972 12.4566C67.2819 12.8391 68.6123 13.6706 69.6067 14.8376C70.326 15.8304 70.7147 17.0243 70.7178 18.2503C70.7057 19.2363 70.4895 20.2091 70.0829 21.1074C69.6566 21.9356 69.0618 22.6655 68.3368 23.2502C67.5426 23.8853 66.623 24.3451 65.6384 24.5995C64.3812 24.8334 63.1073 24.9661 61.8289 24.9963Z" fill="#B9CEEB"/>
<path d="M66.5104 36.8994C58.4945 42.8518 46.7485 46.0264 36.7485 46.0264C23.318 46.1249 10.342 41.1669 0.399308 32.1375C-0.394343 31.4233 0.319943 30.5502 1.19296 31.0264C12.2608 37.3608 24.7898 40.6982 37.5422 40.7089C47.0775 40.6328 56.5087 38.7196 65.3199 35.074C65.4391 34.9779 65.5772 34.9077 65.7251 34.8682C65.8731 34.8287 66.0277 34.8206 66.179 34.8446C66.3302 34.8685 66.4748 34.9239 66.6033 35.0072C66.7319 35.0905 66.8415 35.1998 66.9252 35.3281C67.0088 35.4563 67.0647 35.6007 67.089 35.7519C67.1134 35.9031 67.1058 36.0578 67.0667 36.2058C67.0277 36.3539 66.958 36.4922 66.8621 36.6116C66.7663 36.7311 66.6465 36.8291 66.5104 36.8994ZM69.8438 33.0106C68.812 31.6614 63.0184 32.3756 60.3993 32.6931C59.6057 32.7725 59.5263 32.1375 60.2406 31.582C64.8438 28.328 72.3834 29.2804 73.2565 30.3915C74.1295 31.5026 73.0184 39.0423 68.7326 42.693C68.0977 43.2486 67.4628 42.9311 67.7009 42.2169C68.6533 39.8359 70.7961 34.3598 69.8438 33.0106Z" fill="#B9CEEB"/>
<g clip-path="url(#clip0_420_423)">
<path d="M94.5468 8.41659V10.906C94.5468 11.7358 94.8615 12.448 95.4909 13.0425C96.1327 13.6369 96.867 13.9342 97.6939 13.9342C98.7059 13.9342 99.4834 13.5688 100.026 12.8381C100.569 12.1074 100.841 11.0485 100.841 9.6613C100.841 6.81271 99.7919 5.38841 97.6939 5.38841C96.8546 5.38841 96.1203 5.69184 95.4909 6.29872C94.8615 6.9056 94.5468 7.61155 94.5468 8.41659ZM94.4172 18.4486C94.3308 18.5353 94.2259 18.5786 94.1025 18.5786C93.9791 18.5786 93.8742 18.5353 93.7878 18.4486C93.7014 18.3619 93.6582 18.2566 93.6582 18.1328V5.25836C93.6582 5.13451 93.6952 5.03543 93.7693 4.96112C93.8557 4.87442 93.9606 4.83107 94.084 4.83107C94.2074 4.83107 94.3061 4.87442 94.3802 4.96112C94.4666 5.03543 94.5098 5.13451 94.5098 5.25836V6.37303C94.5098 6.38542 94.5159 6.39161 94.5283 6.39161C94.553 6.39161 94.5653 6.38542 94.5653 6.37303C95.3181 5.22121 96.4104 4.6453 97.842 4.6453C99.0761 4.6453 100.033 5.07878 100.711 5.94574C101.39 6.81271 101.73 8.05122 101.73 9.6613C101.73 11.2342 101.378 12.4665 100.674 13.3583C99.9832 14.2376 99.0391 14.6773 97.842 14.6773C96.4104 14.6773 95.3305 14.1261 94.6023 13.0239C94.6023 12.9991 94.59 12.9867 94.5653 12.9867C94.553 12.9867 94.5468 12.9929 94.5468 13.0053V18.1328C94.5468 18.2566 94.5036 18.3619 94.4172 18.4486ZM108.829 9.14112C105.929 9.14112 104.479 10.0143 104.479 11.7606C104.479 12.417 104.664 12.9372 105.034 13.3211C105.417 13.7051 105.923 13.897 106.552 13.897C107.515 13.897 108.336 13.5626 109.014 12.8938C109.693 12.2126 110.033 11.3395 110.033 10.2744V9.30832C110.033 9.19685 109.977 9.14112 109.866 9.14112H108.829ZM106.386 14.6773C105.534 14.6773 104.855 14.4234 104.349 13.9156C103.843 13.3954 103.59 12.7019 103.59 11.8349C103.59 11.3766 103.671 10.9617 103.831 10.5902C104.004 10.2062 104.275 9.84707 104.646 9.51267C105.028 9.17827 105.571 8.91819 106.275 8.73241C106.991 8.54663 107.842 8.45374 108.829 8.45374H109.866C109.977 8.45374 110.033 8.39801 110.033 8.28654V7.74779C110.033 6.89321 109.841 6.29253 109.459 5.94574C109.089 5.59895 108.428 5.42556 107.478 5.42556C106.466 5.42556 105.466 5.59895 104.479 5.94574C104.38 5.9829 104.288 5.97671 104.201 5.92716C104.115 5.86524 104.072 5.78473 104.072 5.68565C104.072 5.4008 104.207 5.21502 104.479 5.12832C105.466 4.80631 106.466 4.6453 107.478 4.6453C108.749 4.6453 109.638 4.893 110.144 5.38841C110.662 5.87143 110.921 6.71982 110.921 7.93356V14.0642C110.921 14.1881 110.878 14.2933 110.792 14.3801C110.718 14.4544 110.619 14.4915 110.495 14.4915C110.372 14.4915 110.267 14.4544 110.181 14.3801C110.107 14.2933 110.07 14.1881 110.07 14.0642V12.6152C110.07 12.6028 110.064 12.5966 110.051 12.5966C110.027 12.5966 110.014 12.6028 110.014 12.6152C109.669 13.2592 109.181 13.767 108.552 14.1385C107.922 14.4977 107.2 14.6773 106.386 14.6773ZM121.072 5.94574C120.973 5.94574 120.887 5.90859 120.813 5.83428C120.739 5.75996 120.702 5.67326 120.702 5.57419C120.702 5.47511 120.739 5.38841 120.813 5.3141C120.887 5.23979 120.973 5.20263 121.072 5.20263H122.738C122.837 5.20263 122.886 5.15309 122.886 5.05401V2.11872C122.886 1.99486 122.93 1.8896 123.016 1.8029C123.115 1.7162 123.226 1.67285 123.349 1.67285C123.473 1.67285 123.577 1.7162 123.664 1.8029C123.75 1.8896 123.793 1.99486 123.793 2.11872V5.05401C123.793 5.15309 123.843 5.20263 123.942 5.20263H127.052C127.15 5.20263 127.237 5.23979 127.311 5.3141C127.385 5.38841 127.422 5.47511 127.422 5.57419C127.422 5.67326 127.385 5.75996 127.311 5.83428C127.237 5.90859 127.15 5.94574 127.052 5.94574H123.942C123.843 5.94574 123.793 6.00147 123.793 6.11294V11.6491C123.793 12.5904 123.923 13.2097 124.182 13.5069C124.454 13.7917 124.96 13.9342 125.7 13.9342C126.095 13.9342 126.478 13.8785 126.848 13.767C126.934 13.7422 127.015 13.7608 127.089 13.8227C127.175 13.8723 127.218 13.9466 127.218 14.0457C127.218 14.3057 127.089 14.4668 126.829 14.5287C126.41 14.6277 125.99 14.6773 125.571 14.6773C124.546 14.6773 123.843 14.4668 123.46 14.0457C123.078 13.6122 122.886 12.8319 122.886 11.7049V6.11294C122.886 6.00147 122.837 5.94574 122.738 5.94574H121.072ZM131.134 14.3615C131.048 14.4482 130.943 14.4915 130.82 14.4915C130.696 14.4915 130.591 14.4482 130.505 14.3615C130.418 14.2748 130.375 14.1695 130.375 14.0457V5.25836C130.375 5.13451 130.412 5.03543 130.486 4.96112C130.573 4.87442 130.678 4.83107 130.801 4.83107C130.924 4.83107 131.023 4.87442 131.097 4.96112C131.184 5.03543 131.227 5.13451 131.227 5.25836L131.245 6.52165C131.245 6.53404 131.252 6.54023 131.264 6.54023L131.301 6.50307C132.177 5.26455 133.275 4.6453 134.596 4.6453C135.719 4.6453 136.527 4.95493 137.021 5.57419C137.527 6.19344 137.78 7.24619 137.78 8.73241V14.0457C137.78 14.1695 137.737 14.2748 137.651 14.3615C137.564 14.4482 137.459 14.4915 137.336 14.4915C137.212 14.4915 137.108 14.4482 137.021 14.3615C136.947 14.2748 136.91 14.1695 136.91 14.0457V8.8253C136.91 7.4877 136.713 6.58358 136.318 6.11294C135.923 5.62992 135.287 5.38841 134.411 5.38841C133.707 5.38841 133.004 5.729 132.301 6.41019C131.609 7.09137 131.264 7.77255 131.264 8.45374V14.0457C131.264 14.1695 131.221 14.2748 131.134 14.3615ZM144.089 5.36983C142.089 5.36983 141.01 6.55881 140.849 8.93676C140.849 9.06062 140.905 9.12254 141.016 9.12254H146.829C146.94 9.12254 146.995 9.06062 146.995 8.93676C146.909 6.55881 145.94 5.36983 144.089 5.36983ZM144.441 14.6773C142.96 14.6773 141.836 14.2562 141.071 13.414C140.306 12.5718 139.924 11.3209 139.924 9.6613C139.924 7.86544 140.312 6.58358 141.09 5.8157C141.867 5.03543 142.867 4.6453 144.089 4.6453C146.446 4.6453 147.705 6.03244 147.865 8.80672C147.878 9.09158 147.779 9.33928 147.569 9.54983C147.372 9.74802 147.125 9.84707 146.829 9.84707H140.979C140.88 9.84707 140.831 9.90281 140.831 10.0143C140.905 12.6399 142.126 13.9528 144.496 13.9528C145.323 13.9528 146.137 13.8041 146.94 13.5069C147.026 13.4697 147.106 13.4822 147.18 13.5441C147.267 13.5936 147.31 13.6679 147.31 13.767C147.31 14.0271 147.18 14.2004 146.921 14.2872C146.07 14.5473 145.243 14.6773 144.441 14.6773ZM150.985 14.3615C150.899 14.4482 150.788 14.4915 150.652 14.4915C150.516 14.4915 150.405 14.4482 150.319 14.3615C150.232 14.2748 150.189 14.1633 150.189 14.0271V5.27694C150.189 5.15309 150.232 5.04782 150.319 4.96112C150.405 4.87442 150.51 4.83107 150.633 4.83107C150.757 4.83107 150.862 4.87442 150.948 4.96112C151.047 5.04782 151.096 5.15309 151.096 5.27694V7.24619C151.096 7.25857 151.102 7.26476 151.115 7.26476C151.127 7.26476 151.133 7.25857 151.133 7.24619C151.491 6.50308 152.04 5.92097 152.781 5.49988C153.534 5.0664 154.385 4.84346 155.335 4.83107C155.447 4.83107 155.539 4.87442 155.613 4.96112C155.7 5.03543 155.743 5.12832 155.743 5.23979C155.743 5.35125 155.706 5.44414 155.632 5.51845C155.558 5.59276 155.465 5.62992 155.354 5.62992C154.108 5.64231 153.089 6.03863 152.299 6.8189C151.51 7.59916 151.115 8.62713 151.115 9.90281V14.0271C151.115 14.1633 151.072 14.2748 150.985 14.3615ZM94.4172 38.0059C94.3308 38.0926 94.2259 38.136 94.1025 38.136C93.9791 38.136 93.8742 38.0926 93.7878 38.0059C93.7014 37.9192 93.6582 37.814 93.6582 37.6901V28.9028C93.6582 28.7789 93.6952 28.6799 93.7693 28.6056C93.8557 28.5188 93.9606 28.4755 94.084 28.4755C94.2074 28.4755 94.3061 28.5188 94.3802 28.6056C94.4666 28.6799 94.5098 28.7789 94.5098 28.9028L94.5283 30.1661C94.5283 30.1785 94.5344 30.1847 94.5468 30.1847L94.5838 30.1475C95.4601 28.909 96.5584 28.2897 97.879 28.2897C99.0021 28.2897 99.8104 28.5994 100.304 29.2186C100.81 29.8379 101.063 30.8906 101.063 32.3769V37.6901C101.063 37.814 101.02 37.9192 100.933 38.0059C100.847 38.0926 100.742 38.136 100.619 38.136C100.495 38.136 100.39 38.0926 100.304 38.0059C100.23 37.9192 100.193 37.814 100.193 37.6901V32.4697C100.193 31.1321 99.9955 30.228 99.6006 29.7574C99.2057 29.2744 98.5701 29.0329 97.6939 29.0329C96.9904 29.0329 96.2869 29.3734 95.5835 30.0546C94.8924 30.7358 94.5468 31.417 94.5468 32.0982V37.6901C94.5468 37.814 94.5036 37.9192 94.4172 38.0059ZM107.372 29.0143C105.372 29.0143 104.293 30.2033 104.132 32.5812C104.132 32.7051 104.188 32.767 104.299 32.767H110.112C110.223 32.767 110.278 32.7051 110.278 32.5812C110.192 30.2033 109.223 29.0143 107.372 29.0143ZM107.723 38.3217C106.242 38.3217 105.119 37.9006 104.354 37.0585C103.589 36.2163 103.206 34.9653 103.206 33.3057C103.206 31.5099 103.595 30.228 104.373 29.4601C105.15 28.6799 106.15 28.2897 107.372 28.2897C109.729 28.2897 110.988 29.6769 111.148 32.4512C111.161 32.736 111.062 32.9838 110.852 33.1943C110.655 33.3925 110.408 33.4915 110.112 33.4915H104.262C104.163 33.4915 104.114 33.5473 104.114 33.6587C104.188 36.2844 105.409 37.5972 107.779 37.5972C108.606 37.5972 109.42 37.4486 110.223 37.1513C110.309 37.1142 110.389 37.1266 110.463 37.1885C110.55 37.2381 110.593 37.3124 110.593 37.4114C110.593 37.6715 110.463 37.8449 110.204 37.9316C109.353 38.1917 108.526 38.3217 107.723 38.3217ZM113.199 29.5902C113.1 29.5902 113.014 29.553 112.939 29.4787C112.865 29.4044 112.828 29.3177 112.828 29.2186C112.828 29.1196 112.865 29.0329 112.939 28.9585C113.014 28.8842 113.1 28.8471 113.199 28.8471H114.865C114.964 28.8471 115.013 28.7975 115.013 28.6985V25.7632C115.013 25.6393 115.056 25.5341 115.142 25.4473C115.241 25.3606 115.352 25.3173 115.476 25.3173C115.599 25.3173 115.704 25.3606 115.79 25.4473C115.877 25.5341 115.92 25.6393 115.92 25.7632V28.6985C115.92 28.7975 115.969 28.8471 116.068 28.8471H119.178C119.277 28.8471 119.363 28.8842 119.437 28.9585C119.511 29.0329 119.548 29.1196 119.548 29.2186C119.548 29.3177 119.511 29.4044 119.437 29.4787C119.363 29.553 119.277 29.5902 119.178 29.5902H116.068C115.969 29.5902 115.92 29.6459 115.92 29.7574V35.2936C115.92 36.2349 116.05 36.8541 116.309 37.1513C116.58 37.4362 117.086 37.5786 117.827 37.5786C118.222 37.5786 118.604 37.5229 118.974 37.4114C119.061 37.3867 119.141 37.4053 119.215 37.4672C119.302 37.5167 119.345 37.591 119.345 37.6901C119.345 37.9502 119.215 38.1112 118.956 38.1731C118.536 38.2722 118.117 38.3217 117.697 38.3217C116.673 38.3217 115.969 38.1112 115.587 37.6901C115.204 37.2566 115.013 36.4764 115.013 35.3493V29.7574C115.013 29.6459 114.964 29.5902 114.865 29.5902H113.199ZM124.457 37.5601L121.939 28.94C121.902 28.8285 121.921 28.7232 121.995 28.6241C122.069 28.5251 122.167 28.4755 122.291 28.4755C122.427 28.4755 122.55 28.5188 122.661 28.6056C122.784 28.6923 122.865 28.8038 122.902 28.94L125.197 37.3185C125.197 37.331 125.203 37.3371 125.216 37.3371C125.228 37.3371 125.234 37.331 125.234 37.3185L127.437 29.07C127.487 28.8966 127.579 28.7542 127.715 28.6427C127.863 28.5312 128.03 28.4755 128.215 28.4755C128.4 28.4755 128.56 28.5312 128.696 28.6427C128.844 28.7542 128.943 28.8966 128.992 29.07L131.177 37.3185C131.177 37.331 131.183 37.3371 131.195 37.3371C131.22 37.3371 131.232 37.331 131.232 37.3185L133.528 28.9214C133.565 28.7852 133.639 28.6799 133.75 28.6056C133.861 28.5188 133.984 28.4755 134.12 28.4755C134.244 28.4755 134.336 28.5251 134.398 28.6241C134.472 28.7109 134.49 28.8099 134.453 28.9214L131.936 37.5601C131.886 37.7334 131.788 37.8759 131.639 37.9873C131.504 38.0864 131.349 38.136 131.177 38.136C131.004 38.136 130.843 38.0864 130.695 37.9873C130.56 37.8759 130.467 37.7334 130.418 37.5601L128.215 29.3487C128.215 29.3363 128.209 29.3301 128.196 29.3301C128.184 29.3301 128.178 29.3363 128.178 29.3487L125.975 37.5601C125.925 37.7334 125.827 37.8759 125.678 37.9873C125.543 38.0864 125.389 38.136 125.216 38.136C125.043 38.136 124.882 38.0864 124.734 37.9873C124.599 37.8759 124.506 37.7334 124.457 37.5601ZM142.74 30.1289C142.173 29.3982 141.339 29.0329 140.241 29.0329C139.143 29.0329 138.303 29.3982 137.723 30.1289C137.156 30.8473 136.872 31.9062 136.872 33.3057C136.872 34.7052 137.156 35.7704 137.723 36.5011C138.303 37.2195 139.143 37.5786 140.241 37.5786C141.339 37.5786 142.173 37.2195 142.74 36.5011C143.32 35.7704 143.61 34.7052 143.61 33.3057C143.61 31.9062 143.32 30.8473 142.74 30.1289ZM143.407 37.0213C142.654 37.8883 141.599 38.3217 140.241 38.3217C138.884 38.3217 137.828 37.8883 137.076 37.0213C136.323 36.142 135.946 34.9034 135.946 33.3057C135.946 31.7081 136.323 30.4758 137.076 29.6088C137.828 28.7294 138.884 28.2897 140.241 28.2897C141.599 28.2897 142.654 28.7294 143.407 29.6088C144.16 30.4758 144.536 31.7081 144.536 33.3057C144.536 34.9034 144.16 36.142 143.407 37.0213ZM147.568 38.0059C147.482 38.0926 147.371 38.136 147.235 38.136C147.099 38.136 146.988 38.0926 146.902 38.0059C146.815 37.9192 146.772 37.8077 146.772 37.6715V28.9214C146.772 28.7975 146.815 28.6923 146.902 28.6056C146.988 28.5188 147.093 28.4755 147.217 28.4755C147.34 28.4755 147.445 28.5188 147.531 28.6056C147.63 28.6923 147.679 28.7975 147.679 28.9214V30.8906C147.679 30.903 147.686 30.9092 147.698 30.9092C147.71 30.9092 147.716 30.903 147.716 30.8906C148.074 30.1475 148.624 29.5654 149.364 29.1443C150.117 28.7109 150.968 28.4879 151.919 28.4755C152.03 28.4755 152.122 28.5188 152.196 28.6056C152.283 28.6799 152.326 28.7728 152.326 28.8842C152.326 28.9957 152.289 29.0886 152.215 29.1629C152.141 29.2372 152.048 29.2744 151.937 29.2744C150.691 29.2868 149.673 29.6831 148.883 30.4633C148.093 31.2436 147.698 32.2716 147.698 33.5473V37.6715C147.698 37.8077 147.655 37.9192 147.568 38.0059ZM155.687 38.0059C155.6 38.0926 155.495 38.136 155.372 38.136C155.249 38.136 155.144 38.0926 155.057 38.0059C154.971 37.9192 154.928 37.814 154.928 37.6901V24.6485C154.928 24.5246 154.971 24.4194 155.057 24.3327C155.144 24.2459 155.249 24.2026 155.372 24.2026C155.495 24.2026 155.6 24.2459 155.687 24.3327C155.786 24.4194 155.835 24.5246 155.835 24.6485V32.8041C155.835 32.8166 155.841 32.8227 155.853 32.8227H155.872L160.685 28.8471C160.994 28.5994 161.345 28.4755 161.74 28.4755C161.839 28.4755 161.901 28.5251 161.925 28.6241C161.962 28.7109 161.944 28.7852 161.87 28.8471L156.779 33.0271C156.717 33.089 156.717 33.1571 156.779 33.2314L161.962 37.7458C162.024 37.8077 162.036 37.8883 161.999 37.9873C161.962 38.0864 161.901 38.136 161.814 38.136C161.432 38.136 161.092 38.0059 160.796 37.7458L155.872 33.4172H155.853C155.841 33.4172 155.835 33.4234 155.835 33.4358V37.6901C155.835 37.814 155.786 37.9192 155.687 38.0059Z" fill="#B9CEEB"/>
<path d="M113.775 14.4915C113.911 14.4915 114.022 14.4482 114.109 14.3615C114.195 14.2747 114.238 14.1633 114.238 14.0271V9.90279C114.238 8.62711 114.633 7.59914 115.423 6.81888C116.213 6.03861 117.231 5.64229 118.477 5.6299C118.588 5.6299 118.681 5.59274 118.755 5.51843C118.829 5.44412 118.866 5.35123 118.866 5.23977C118.866 5.1283 118.823 5.03541 118.737 4.9611C118.663 4.8744 118.57 4.83105 118.459 4.83105C117.509 4.84344 116.657 5.06638 115.904 5.49986C115.164 5.92095 114.615 6.50306 114.257 7.24617C114.257 7.25855 114.25 7.26474 114.238 7.26474C114.226 7.26474 114.22 7.25855 114.22 7.24617V5.27692C114.22 5.15307 114.17 5.0478 114.072 4.9611C113.985 4.8744 113.88 4.83105 113.757 4.83105C113.633 4.83105 113.529 4.8744 113.442 4.9611C113.356 5.0478 113.312 5.15307 113.312 5.27692V14.0271C113.312 14.1633 113.356 14.2747 113.442 14.3615C113.529 14.4482 113.64 14.4915 113.775 14.4915Z" fill="#B9CEEB"/>
</g>
<defs>
<clipPath id="clip0_420_423">
<rect width="69" height="38" fill="white" transform="translate(93.0557 0.980469)"/>
</clipPath>
</defs>
</svg>
