<svg width="233" height="38" viewBox="0 0 233 38" fill="none" xmlns="http://www.w3.org/2000/svg">
<path d="M62.2073 17.354L59.7625 14.8356C59.2261 15.5426 58.5301 16.1127 57.7314 16.4994C56.9327 16.8861 56.0538 17.0784 55.1666 17.0607C54.5161 17.0716 53.8703 16.949 53.269 16.7006C52.6677 16.4522 52.1236 16.0832 51.6705 15.6164C51.1828 15.1105 50.8033 14.5104 50.5553 13.8529C50.3073 13.1954 50.1959 12.4943 50.2279 11.7923C50.1949 11.0878 50.3143 10.3845 50.5781 9.73052C50.8419 9.0765 51.2439 8.48717 51.7565 8.00282C52.7536 7.07407 54.0731 6.56997 55.4354 6.5973C56.3093 6.59208 57.1722 6.793 57.9539 7.18376C58.7356 7.57451 59.4141 8.14409 59.9344 8.84625L62.3053 6.15708C61.4423 5.13489 60.363 4.31727 59.1453 3.76335C57.9277 3.20943 56.6021 2.93306 55.2646 2.95423C54.0866 2.92855 52.9156 3.14048 51.8214 3.57737C50.7272 4.01425 49.7322 4.66713 48.8959 5.49704C48.0454 6.3159 47.3746 7.30286 46.9263 8.39511C46.4781 9.48735 46.2621 10.661 46.2921 11.8412C46.2575 13.0104 46.4668 14.174 46.9067 15.2578C47.3465 16.3417 48.0073 17.322 48.8469 18.1364C49.7085 18.9664 50.7282 19.6147 51.8454 20.0427C52.9626 20.4707 54.1544 20.6698 55.35 20.628C57.9814 20.628 60.2672 19.5361 62.2073 17.3523" fill="#B9CEEB"/>
<path d="M76.311 17.0374H69.0283V3.34668H65.2126V20.4356H76.311V17.0374Z" fill="#B9CEEB"/>
<path d="M95.6034 11.7791C95.6322 10.6074 95.4167 9.44265 94.9706 8.35891C94.5245 7.27516 93.8575 6.29621 93.0122 5.48441C91.2853 3.85881 89.003 2.95361 86.6313 2.95361C84.2596 2.95361 81.9773 3.85881 80.2504 5.48441C79.4051 6.29621 78.7381 7.27516 78.292 8.35891C77.8459 9.44265 77.6304 10.6074 77.6592 11.7791C77.6304 12.9508 77.846 14.1156 78.2921 15.1994C78.7382 16.2833 79.4051 17.2623 80.2504 18.0743C81.9776 19.6994 84.2598 20.6042 86.6313 20.6042C89.0028 20.6042 91.285 19.6994 93.0122 18.0743C93.8575 17.2623 94.5244 16.2833 94.9705 15.1994C95.4166 14.1156 95.6322 12.9508 95.6034 11.7791ZM90.2502 15.6784C89.7941 16.1821 89.2376 16.5846 88.6165 16.8601C87.9955 17.1356 87.3236 17.2779 86.6441 17.2779C85.9647 17.2779 85.2928 17.1356 84.6717 16.8601C84.0506 16.5846 83.4941 16.1821 83.0381 15.6784C82.0641 14.6215 81.5382 13.2279 81.571 11.791C81.5398 10.3508 82.0653 8.95412 83.0381 7.89167C83.4612 7.41812 83.9735 7.03256 84.5457 6.75701C85.1179 6.48146 85.7387 6.32131 86.3728 6.28572C87.0069 6.25013 87.6418 6.33979 88.2412 6.54958C88.8406 6.75937 89.3928 7.08517 89.8663 7.5084C90.0014 7.62878 90.1296 7.75675 90.2502 7.89167C91.2229 8.95412 91.7484 10.3508 91.7172 11.791C91.7501 13.2279 91.2241 14.6215 90.2502 15.6784Z" fill="#B9CEEB"/>
<path d="M113.23 12.9057V3.34668H109.414V12.7832C109.479 13.9388 109.147 15.0818 108.473 16.0231C108.172 16.4092 107.783 16.718 107.338 16.9241C106.894 17.1302 106.407 17.2276 105.917 17.2082C105.427 17.2266 104.938 17.1288 104.493 16.9229C104.047 16.7169 103.656 16.4087 103.351 16.0231C102.67 15.0853 102.333 13.9409 102.397 12.7832V3.34668H98.5818V12.9057C98.5818 15.3671 99.2705 17.2654 100.648 18.6007C102.097 19.8897 103.968 20.6029 105.908 20.6052C107.847 20.6075 109.721 19.8988 111.173 18.6132C112.54 17.2844 113.224 15.3815 113.226 12.9045" fill="#B9CEEB"/>
<path d="M130.243 5.58366C128.613 4.09272 126.274 3.34706 123.227 3.34668H117.19V20.4356H123.033C126.293 20.4356 128.718 19.6614 130.307 18.1132C131.896 16.5649 132.691 14.4625 132.692 11.806C132.692 9.14833 131.877 7.07423 130.247 5.58366H130.243ZM127.448 15.7412C126.511 16.6213 125.17 17.0615 123.427 17.0619H121.006V6.67197H123.133C125.072 6.67197 126.511 7.12434 127.448 8.02908C127.937 8.54268 128.314 9.15186 128.556 9.81832C128.798 10.4848 128.899 11.1941 128.854 11.9017C128.854 13.5794 128.385 14.8585 127.448 15.7389" fill="#B9CEEB"/>
<path d="M158.213 3.34668H154.397V14.3482L146.013 3.34668H142.444V20.4356H146.259V9.72903L154.4 20.4356H158.215L158.213 3.34668Z" fill="#B9CEEB"/>
<path d="M171.267 3.34668H167.576L160.192 20.435H164.251L165.84 16.7435H173.003L174.592 20.435H178.65L171.267 3.34668ZM167.28 13.3943L169.432 8.43172L171.559 13.3943H167.28Z" fill="#B9CEEB"/>
<path d="M191.46 3.34668H177.967V6.64691H182.808V20.4356H186.623V6.64691H191.464L191.46 3.34668Z" fill="#B9CEEB"/>
<path d="M198.061 3.34668H194.247V20.4356H198.061V3.34668Z" fill="#B9CEEB"/>
<path d="M217.057 3.34668H212.924L208.573 14.2241L204.22 3.34668H200.088L206.959 20.4356H210.186L217.057 3.34668Z" fill="#B9CEEB"/>
<path d="M231.675 17.0619H222.9V13.5168H230.552V10.2644H222.9V6.74487H231.407V3.34668H219.084V20.4356H231.675L231.675 17.0619Z" fill="#B9CEEB"/>
<path d="M50.9457 29.1235C51.4355 29.1206 51.9192 29.2333 52.3573 29.4524C52.7955 29.6715 53.1758 29.9908 53.4674 30.3844L54.7966 28.8769C54.3129 28.3038 53.7078 27.8454 53.0251 27.5348C52.3425 27.2243 51.5993 27.0694 50.8494 27.0813C50.1893 27.0666 49.533 27.1852 48.9197 27.4298C48.3064 27.6744 47.7487 28.0401 47.2798 28.505C46.3494 29.4476 45.8255 30.7173 45.8204 32.0417C45.8152 33.3661 46.3294 34.6398 47.2525 35.5896C47.7477 36.0541 48.3295 36.4165 48.9648 36.6561C49.6 36.8957 50.2763 37.0078 50.9549 36.9861C51.6335 36.9644 52.3011 36.8092 52.9197 36.5294C53.5384 36.2496 54.0958 35.8507 54.5603 35.3555C54.6224 35.2894 54.6827 35.2211 54.7414 35.1516L53.3712 33.7404C53.0704 34.1366 52.6803 34.4561 52.2325 34.6728C51.7847 34.8894 51.2921 34.9971 50.7948 34.987C50.4302 34.9932 50.0683 34.9247 49.7312 34.7856C49.3942 34.6465 49.0892 34.4398 48.8351 34.1784C48.5617 33.8947 48.3491 33.5582 48.2101 33.1896C48.0712 32.8209 48.0089 32.4278 48.027 32.0342C48.0081 31.6395 48.0746 31.2454 48.222 30.8788C48.3695 30.5121 48.5943 30.1817 48.8813 29.91C49.4399 29.389 50.1797 29.1063 50.9434 29.1218" fill="#B9CEEB"/>
<path d="M60.7032 36.9723C61.364 36.9882 62.0213 36.8707 62.6358 36.627C63.2502 36.3833 63.8093 36.0182 64.2796 35.5537C65.2102 34.6151 65.7324 33.3468 65.7324 32.0251C65.7324 30.7033 65.2102 29.4351 64.2796 28.4965C63.3116 27.5851 62.0323 27.0776 60.7029 27.0776C59.3734 27.0776 58.0941 27.5851 57.1261 28.4965C56.1955 29.4351 55.6733 30.7033 55.6733 32.0251C55.6733 33.3468 56.1955 34.6151 57.1261 35.5537C57.5965 36.0183 58.1557 36.3834 58.7702 36.6271C59.3848 36.8708 60.0422 36.9882 60.7032 36.9723ZM58.6883 29.8462C58.9426 29.5616 59.2542 29.3339 59.6025 29.178C59.9509 29.0221 60.3283 28.9415 60.71 28.9415C61.0917 28.9415 61.469 29.0221 61.8174 29.178C62.1658 29.3339 62.4774 29.5616 62.7317 29.8462C63.2617 30.4496 63.554 31.2253 63.554 32.0285C63.554 32.8316 63.2617 33.6073 62.7317 34.2108C62.4762 34.4935 62.1643 34.7194 61.8161 34.8741C61.4678 35.0288 61.091 35.1087 60.71 35.1087C60.329 35.1087 59.9522 35.0288 59.6039 34.8741C59.2557 34.7194 58.9438 34.4935 58.6883 34.2108C58.1586 33.6072 57.8666 32.8315 57.8666 32.0285C57.8666 31.2254 58.1586 30.4498 58.6883 29.8462Z" fill="#B9CEEB"/>
<path d="M78.2572 36.8802V27.3013H75.3796L72.8988 32.5634L70.4318 27.3013H67.541V36.8802H69.6789V30.8504L72.2553 36.0852H73.5298L76.1199 30.8504V36.8802H78.2572Z" fill="#B9CEEB"/>
<path d="M80.6152 27.2998V36.8793H82.7531V34.2067H84.0277C85.4434 34.2067 86.4964 33.9325 87.1867 33.3843C87.5492 33.0619 87.8315 32.6593 88.0111 32.2086C88.1906 31.7578 88.2625 31.2714 88.2209 30.788C88.2602 30.3019 88.1901 29.8132 88.0158 29.3578C87.8415 28.9024 87.5673 28.4919 87.2134 28.1563C86.5418 27.5868 85.4708 27.3021 84.0003 27.3021L80.6152 27.2998ZM86.0283 30.6644C86.0602 31.1176 85.9235 31.5667 85.6445 31.9253C85.4448 32.0926 85.2128 32.2172 84.9631 32.2914C84.7133 32.3655 84.4509 32.3876 84.1922 32.3564H82.7531V29.1359H83.9724C84.5142 29.0965 85.0556 29.2184 85.5283 29.4861C85.7036 29.6249 85.8413 29.8056 85.9287 30.0114C86.016 30.2173 86.0503 30.4418 86.0283 30.6644Z" fill="#B9CEEB"/>
<path d="M93.8666 36.9727C94.4074 36.9925 94.9466 36.9038 95.4526 36.7119C95.9585 36.52 96.4209 36.2288 96.8126 35.8554C97.2144 35.4301 97.5242 34.9264 97.7223 34.3758C97.9205 33.8253 98.0028 33.2398 97.9641 32.6559V27.2998H95.8256V32.5876C95.8622 33.2351 95.6763 33.8757 95.2989 34.4031C95.1299 34.6195 94.9119 34.7926 94.6628 34.9081C94.4138 35.0237 94.1409 35.0784 93.8666 35.0677C93.5913 35.078 93.3176 35.0231 93.0675 34.9077C92.8174 34.7922 92.5981 34.6193 92.4275 34.4031C92.0452 33.8777 91.8565 33.2363 91.8933 32.5876V27.2998H89.7554V32.6582C89.7183 33.2414 89.802 33.826 90.0011 34.3754C90.2002 34.9249 90.5105 35.4273 90.9126 35.8514C91.3051 36.2262 91.7687 36.5188 92.276 36.7117C92.7833 36.9047 93.3241 36.9942 93.8666 36.975" fill="#B9CEEB"/>
<path d="M104.239 36.8802V29.151H106.953V27.3013H99.3884V29.151H102.102V36.8802H104.239Z" fill="#B9CEEB"/>
<path d="M110.654 27.3013H108.515V36.8802H110.654V27.3013Z" fill="#B9CEEB"/>
<path d="M115.148 30.88L119.711 36.8825H121.849V27.3013H119.711V33.4678L115.011 27.3013H113.01V36.8802H115.148V30.88Z" fill="#B9CEEB"/>
<path d="M128.756 29.0562C129.157 29.0526 129.554 29.1247 129.928 29.2686C130.364 29.4584 130.764 29.7202 131.113 30.0431L132.223 28.4394C131.244 27.5487 129.963 27.0635 128.64 27.0823C127.987 27.0708 127.339 27.191 126.734 27.4356C126.129 27.6802 125.579 28.0443 125.118 28.506C124.187 29.4487 123.663 30.7185 123.658 32.043C123.653 33.3675 124.167 34.6413 125.09 35.5911C125.557 36.05 126.111 36.4103 126.719 36.6504C127.328 36.8905 127.979 37.0056 128.633 36.9887C129.367 37.0284 130.101 36.9066 130.782 36.632C131.464 36.3573 132.078 35.9366 132.579 35.3992V32.0005H130.428V34.6315C129.859 34.9327 129.221 35.0792 128.578 35.0564C128.22 35.0598 127.866 34.9891 127.537 34.8488C127.208 34.7084 126.911 34.5014 126.666 34.2409C126.143 33.6335 125.859 32.857 125.865 32.0556C125.871 31.2541 126.168 30.4822 126.7 29.8831C126.969 29.6125 127.29 29.3995 127.643 29.2569C127.996 29.1143 128.375 29.0453 128.756 29.0539" fill="#B9CEEB"/>
<path d="M144.68 29.1791V27.2998H138.102V36.8787H140.241V33.1258H144.462V31.2464H140.241V29.1791H144.68Z" fill="#B9CEEB"/>
<path d="M147.393 28.4989C146.462 29.4375 145.94 30.7057 145.94 32.0275C145.94 33.3493 146.462 34.6175 147.393 35.5561C148.361 36.4674 149.64 36.9749 150.969 36.9749C152.299 36.9749 153.578 36.4674 154.546 35.5561C155.477 34.6175 155.999 33.3493 155.999 32.0275C155.999 30.7057 155.477 29.4375 154.546 28.4989C153.578 27.5876 152.299 27.0801 150.969 27.0801C149.64 27.0801 148.361 27.5876 147.393 28.4989ZM152.998 29.8486C153.528 30.4521 153.82 31.2278 153.82 32.0309C153.82 32.8341 153.528 33.6098 152.998 34.2132C152.742 34.4959 152.43 34.7219 152.082 34.8765C151.734 35.0312 151.357 35.1111 150.976 35.1111C150.595 35.1111 150.218 35.0312 149.87 34.8765C149.522 34.7219 149.21 34.4959 148.954 34.2132C148.424 33.6098 148.132 32.8341 148.132 32.0309C148.132 31.2278 148.424 30.4521 148.954 29.8486C149.209 29.564 149.52 29.3363 149.868 29.1804C150.217 29.0245 150.594 28.9439 150.976 28.9439C151.358 28.9439 151.735 29.0245 152.083 29.1804C152.432 29.3363 152.743 29.564 152.998 29.8486Z" fill="#B9CEEB"/>
<path d="M161.782 36.9727C162.323 36.9925 162.862 36.9038 163.368 36.7119C163.874 36.5201 164.337 36.2288 164.729 35.8554C165.13 35.4298 165.44 34.9261 165.638 34.3756C165.836 33.8251 165.918 33.2397 165.88 32.6559V27.2998H163.742V32.5876C163.778 33.2352 163.592 33.8757 163.214 34.4031C163.045 34.6195 162.827 34.7926 162.578 34.9082C162.329 35.0237 162.056 35.0784 161.782 35.0677C161.507 35.0779 161.233 35.023 160.983 34.9075C160.733 34.7921 160.514 34.6193 160.343 34.4031C159.961 33.8775 159.773 33.2362 159.809 32.5876V27.2998H157.671V32.6582C157.634 33.2415 157.718 33.8261 157.917 34.3756C158.116 34.925 158.426 35.4274 158.829 35.8514C159.221 36.2262 159.685 36.5188 160.192 36.7118C160.699 36.9047 161.24 36.9942 161.782 36.975" fill="#B9CEEB"/>
<path d="M170.101 27.3013H168.099V36.8802H170.238V30.88L174.801 36.8825H176.939V27.3013H174.801V33.4678L170.101 27.3013Z" fill="#B9CEEB"/>
<path d="M182.681 27.2998H179.296V36.8787H182.572C184.398 36.8787 185.757 36.4448 186.649 35.5769C187.103 35.1119 187.457 34.5576 187.687 33.9491C187.917 33.3406 188.018 32.6911 187.985 32.0414C188.021 31.3957 187.917 30.7499 187.68 30.1479C187.444 29.546 187.08 29.0023 186.614 28.5538C185.7 27.7186 184.389 27.3009 182.681 27.3009V27.2998ZM185.045 34.2488C184.418 34.7784 183.609 35.0439 182.79 34.9892H181.434V29.1638H182.626C183.5 29.0926 184.368 29.3653 185.045 29.924C185.319 30.2122 185.531 30.554 185.666 30.9279C185.802 31.3018 185.859 31.6998 185.833 32.0967C185.86 32.4905 185.804 32.8855 185.668 33.2561C185.532 33.6268 185.32 33.9646 185.045 34.2477" fill="#B9CEEB"/>
<path d="M191.478 34.8098H195.493L196.384 36.8787H198.659L194.521 27.2998H192.452L188.313 36.8787H190.587L191.478 34.8098ZM193.493 30.1501L194.685 32.9321H192.287L193.493 30.1501Z" fill="#B9CEEB"/>
<path d="M203.126 36.8802V29.151H205.84V27.3013H198.275V29.151H200.988V36.8802H203.126Z" fill="#B9CEEB"/>
<path d="M209.54 27.3013H207.402V36.8802H209.54V27.3013Z" fill="#B9CEEB"/>
<path d="M216.379 36.9723C217.04 36.9882 217.697 36.8707 218.311 36.627C218.926 36.3832 219.485 36.0182 219.955 35.5537C220.886 34.6151 221.408 33.3468 221.408 32.0251C221.408 30.7033 220.886 29.4351 219.955 28.4965C218.987 27.5851 217.708 27.0776 216.379 27.0776C215.049 27.0776 213.77 27.5851 212.802 28.4965C211.871 29.4351 211.349 30.7033 211.349 32.0251C211.349 33.3468 211.871 34.6151 212.802 35.5537C213.272 36.0184 213.831 36.3835 214.446 36.6273C215.06 36.871 215.718 36.9884 216.379 36.9723ZM214.364 29.8462C214.618 29.5616 214.93 29.3339 215.278 29.178C215.627 29.0221 216.004 28.9415 216.386 28.9415C216.767 28.9415 217.145 29.0221 217.493 29.178C217.841 29.3339 218.153 29.5616 218.407 29.8462C218.937 30.4496 219.23 31.2253 219.23 32.0285C219.23 32.8316 218.937 33.6073 218.407 34.2108C218.152 34.4935 217.84 34.7194 217.492 34.8741C217.143 35.0288 216.767 35.1087 216.386 35.1087C216.005 35.1087 215.628 35.0288 215.28 34.8741C214.931 34.7194 214.619 34.4935 214.364 34.2108C213.834 33.6073 213.542 32.8316 213.542 32.0285C213.542 31.2253 213.834 30.4496 214.364 29.8462Z" fill="#B9CEEB"/>
<path d="M229.918 27.3013V33.4678L225.218 27.3013H223.217V36.8802H225.354V30.88L229.918 36.8825H232.056V27.3013H229.918Z" fill="#B9CEEB"/>
<path d="M5.31839 32.5478V25.5327H0.0556641V37.8099H12.3323V32.5478H5.31839Z" fill="#B9CEEB"/>
<path d="M31.6242 25.572V32.5478H24.6485L24.6097 32.5091V37.8099H36.8858V25.5327H31.5849L31.6242 25.572Z" fill="#B9CEEB"/>
<path d="M5.31839 13.2178V6.24205H12.2936L12.3323 6.28135V0.980469H0.0556641V13.2583H5.35768L5.31839 13.2178Z" fill="#B9CEEB"/>
<path d="M31.6242 6.24205V13.2583H36.8858V0.980469H24.6097V6.24205H31.6242Z" fill="#B9CEEB"/>
<path d="M12.3318 6.28135L19.3081 13.2583H23.9592L16.943 6.24205H24.6084V0.980469H12.3318V6.28135Z" fill="#B9CEEB"/>
<path d="M21.1197 29.0209L17.6321 25.5327H12.9827L18.7916 31.3461L19.9944 32.5478H12.3318V37.8099H24.6084V32.5091L21.1197 29.0209Z" fill="#B9CEEB"/>
<path d="M31.6242 18.5215V20.9242L30.4226 19.7175L24.6097 13.9086V18.5585L28.0973 22.0456L31.5849 25.5332H36.8858V13.2588H31.6242V18.5215Z" fill="#B9CEEB"/>
<path d="M5.31839 17.8689L12.3323 24.8828V20.23L5.35768 13.2588H0.0556641V25.5332H5.31839V17.8689Z" fill="#B9CEEB"/>
</svg>
